<?xml version="1.0" encoding="UTF-8" standalone="no"?>
<!-- Uploaded to: SVG Repo, www.svgrepo.com, Generator: SVG Repo Mixer Tools -->

<svg
   viewBox="0 -4.5 512 512"
   version="1.1"
   id="svg1"
   sodipodi:docname="icon.svg"
   inkscape:version="1.3.2 (091e20e, 2023-11-25, custom)"
   xml:space="preserve"
   width="512"
   height="512"
   inkscape:export-filename="icon.png"
   inkscape:export-xdpi="48"
   inkscape:export-ydpi="48"
   xmlns:inkscape="http://www.inkscape.org/namespaces/inkscape"
   xmlns:sodipodi="http://sodipodi.sourceforge.net/DTD/sodipodi-0.dtd"
   xmlns="http://www.w3.org/2000/svg"
   xmlns:svg="http://www.w3.org/2000/svg"><defs
     id="defs1"><inkscape:path-effect
       effect="mirror_symmetry"
       start_point="256,-4.5"
       end_point="256,507.5"
       center_point="256,251.5"
       id="path-effect8"
       is_visible="true"
       lpeversion="1.2"
       lpesatellites=""
       mode="vertical"
       discard_orig_path="false"
       fuse_paths="true"
       oposite_fuse="false"
       split_items="false"
       split_open="false"
       link_styles="false" /><inkscape:path-effect
       effect="copy_rotate"
       starting_point="0,0"
       origin="260,256"
       id="path-effect7"
       is_visible="true"
       lpeversion="1.2"
       lpesatellites=""
       method="normal"
       num_copies="2"
       starting_angle="0"
       rotation_angle="180"
       gap="0"
       copies_to_360="true"
       mirror_copies="false"
       split_items="false"
       link_styles="false" /><inkscape:path-effect
       effect="mirror_symmetry"
       start_point="8.8469796,249.21909"
       end_point="512.0625,249.21909"
       center_point="260.45474,249.21909"
       id="path-effect3"
       is_visible="true"
       lpeversion="1.2"
       lpesatellites=""
       mode="horizontal"
       discard_orig_path="false"
       fuse_paths="false"
       oposite_fuse="false"
       split_items="false"
       split_open="false"
       link_styles="false" /><inkscape:path-effect
       effect="fillet_chamfer"
       id="path-effect6"
       is_visible="true"
       lpeversion="1"
       nodesatellites_param="F,0,0,1,0,0,0,1 @ F,0,0,1,0,16,0,1 @ F,0,1,1,0,8,0,1 @ F,0,0,1,0,0,0,1 @ F,0,0,1,0,0,0,1 @ F,0,0,1,0,0,0,1 @ F,0,0,1,0,0,0,1 @ F,0,0,1,0,0,0,1 @ F,0,0,1,0,0,0,1 @ F,0,0,1,0,0,0,1 @ F,0,0,1,0,0,0,1 @ F,0,0,1,0,0,0,1 | F,0,0,1,0,8,0,1 @ F,0,0,1,0,8,0,1 @ F,0,0,1,0,8,0,1 @ F,0,0,1,0,8,0,1 @ F,0,0,1,0,8,0,1 @ F,0,0,1,0,8,0,1 @ F,0,0,1,0,8,0,1 @ F,0,0,1,0,8,0,1 @ F,0,0,1,0,8,0,1 @ F,0,0,1,0,8,0,1 @ F,0,0,1,0,8,0,1 @ F,0,0,1,0,8,0,1"
       radius="8"
       unit="px"
       method="auto"
       mode="F"
       chamfer_steps="1"
       flexible="false"
       use_knot_distance="true"
       apply_no_radius="true"
       apply_with_radius="true"
       only_selected="true"
       hide_knots="false" /><inkscape:path-effect
       effect="fillet_chamfer"
       id="path-effect5"
       is_visible="true"
       lpeversion="1"
       nodesatellites_param="F,0,0,1,0,15,0,1 @ F,0,0,1,0,15,0,1 @ F,0,0,1,0,15,0,1"
       radius="15"
       unit="px"
       method="auto"
       mode="F"
       chamfer_steps="1"
       flexible="false"
       use_knot_distance="true"
       apply_no_radius="true"
       apply_with_radius="true"
       only_selected="false"
       hide_knots="false" /><inkscape:path-effect
       effect="fillet_chamfer"
       id="path-effect4"
       is_visible="true"
       lpeversion="1"
       nodesatellites_param="F,0,0,1,0,64,0,1 @ F,0,0,1,0,64,0,1 @ F,0,0,1,0,64,0,1 @ F,0,0,1,0,64,0,1"
       radius="64"
       unit="px"
       method="auto"
       mode="F"
       chamfer_steps="1"
       flexible="false"
       use_knot_distance="true"
       apply_no_radius="true"
       apply_with_radius="true"
       only_selected="false"
       hide_knots="false" /><inkscape:path-effect
       effect="fillet_chamfer"
       id="path-effect2"
       is_visible="true"
       lpeversion="1"
       nodesatellites_param="F,0,0,1,0,38,0,1 @ F,0,0,1,0,38,0,1 @ F,0,0,1,0,38,0,1 @ F,0,0,1,0,38,0,1"
       radius="38"
       unit="px"
       method="auto"
       mode="F"
       chamfer_steps="1"
       flexible="false"
       use_knot_distance="true"
       apply_no_radius="true"
       apply_with_radius="true"
       only_selected="false"
       hide_knots="false" /></defs><sodipodi:namedview
     id="namedview1"
     pagecolor="#ffffff"
     bordercolor="#000000"
     borderopacity="0.25"
     inkscape:showpageshadow="2"
     inkscape:pageopacity="0.0"
     inkscape:pagecheckerboard="0"
     inkscape:deskcolor="#d1d1d1"
     inkscape:zoom="0.70710678"
     inkscape:cx="239.7092"
     inkscape:cy="202.23254"
     inkscape:window-width="1680"
     inkscape:window-height="961"
     inkscape:window-x="3591"
     inkscape:window-y="1104"
     inkscape:window-maximized="1"
     inkscape:current-layer="svg1" /><path
     id="path3"
     style="display:inline;fill:#539b53;fill-opacity:1;fill-rule:evenodd;stroke:#ffffff;stroke-width:0;stroke-linejoin:round"
     d="M 50.5 387.61133 L 50.5 450.75 C 50.5 468.85749 138.36243 506.67578 256 506.67578 C 373.63757 506.67578 461.5 468.85749 461.5 450.75 L 461.5 387.61133 C 461.5 404.62231 373.50141 431.75 256 431.75 C 138.49859 431.75 50.5 404.62231 50.5 387.61133 z M 403.5 436.5 A 11 15 0 0 1 414.5 451.5 A 11 15 0 0 1 403.5 466.5 A 11 15 0 0 1 392.5 451.5 A 11 15 0 0 1 403.5 436.5 z M 358.25 445.25 A 12.5 15.375 0 0 1 370.75 460.625 A 12.5 15.375 0 0 1 358.25 476 A 12.5 15.375 0 0 1 345.75 460.625 A 12.5 15.375 0 0 1 358.25 445.25 z " /><path
     id="path2"
     style="fill:#539b53;fill-opacity:1;fill-rule:evenodd;stroke:#ffffff;stroke-width:0;stroke-linejoin:round"
     d="M 333.46484 320.22852 A 78.617531 78.617531 0 0 1 255.60938 388.19336 A 78.617531 78.617531 0 0 1 177.76367 320.37695 A 202.9395 48.790367 0 0 0 53.060547 365.31641 A 202.9395 48.790367 0 0 0 256 414.10742 A 202.9395 48.790367 0 0 0 458.93945 365.31641 A 202.9395 48.790367 0 0 0 333.46484 320.22852 z " /><path
     id="path1"
     style="fill:#539b53;fill-opacity:1;fill-rule:evenodd;stroke:none;stroke-width:0;stroke-linejoin:round;stroke-opacity:1"
     d="m 256,-4.5 a 54.220514,54.220514 0 0 0 -54.22056,54.220514 54.220514,54.220514 0 0 0 4.76013,22.149346 l -76.4596,68.74305 A 58.133318,58.133318 0 0 0 96.13318,129.65374 58.133318,58.133318 0 0 0 38,187.78738 a 58.133318,58.133318 0 0 0 58.13318,58.13318 58.133318,58.133318 0 0 0 35.12614,-11.99639 l 66.59877,51.79729 A 62.60514,62.60514 0 0 0 193.39486,308.5257 62.60514,62.60514 0 0 0 256,371.13084 62.60514,62.60514 0 0 0 318.60514,308.5257 62.60514,62.60514 0 0 0 269.9743,247.51861 V 102.02828 a 54.220514,54.220514 0 0 0 17.76271,-8.50906 l 76.15155,68.4658 a 58.133318,58.133318 0 0 0 -6.15538,25.80236 58.133318,58.133318 0 0 0 58.13364,58.13318 A 58.133318,58.133318 0 0 0 474,187.78738 58.133318,58.133318 0 0 0 415.86682,129.65374 58.133318,58.133318 0 0 0 382.01367,140.69587 L 305.46043,71.86986 A 54.220514,54.220514 0 0 0 310.22056,49.720514 54.220514,54.220514 0 0 0 256,-4.5 Z m -31.73701,98.01922 a 54.220514,54.220514 0 0 0 17.76271,8.50906 v 145.63051 a 62.60514,62.60514 0 0 0 -28.39442,14.92419 l -64.76643,-50.37344 a 58.133318,58.133318 0 0 0 5.40197,-24.42216 58.133318,58.133318 0 0 0 -6.08793,-25.86153 z" /></svg>
